<?xml version="1.0" encoding="UTF-8" standalone="no"?><!-- Generator: Gravit.io --><svg xmlns="http://www.w3.org/2000/svg" xmlns:xlink="http://www.w3.org/1999/xlink" style="isolation:isolate" viewBox="0 0 224 224" width="224pt" height="224pt"><defs><clipPath id="_clipPath_F01s7EExoLVLcuuPPCHAuZK9ryDRzozO"><rect width="224" height="224"/></clipPath></defs><g clip-path="url(#_clipPath_F01s7EExoLVLcuuPPCHAuZK9ryDRzozO)"><rect width="224" height="224" style="fill:rgb(37,43,80)" fill-opacity="0"/><g><path d=" M 67.051 75.15 Q 141.583 -5.337 155.592 24.612 C 169.602 54.561 152.086 14.336 198.882 120.073 Q 245.678 225.81 126.452 203.68 Q 15.703 176.25 12.133 156.885 Q 8.563 137.52 67.051 75.15 Z " fill="rgb(50,160,161)"/><defs><linearGradient id="_lgradient_4" x1="0.4846614291058736" y1="0.6485179495932183" x2="0.4999999999999983" y2="0.9999999999999991"><stop offset="0%" style="stop-color:#FFFFFF"/><stop offset="97.82608695652173%" style="stop-color:#CCCCCC"/></linearGradient></defs><path d="M 104.156 82.637 L 109.521 82.637 C 113.144 82.637 116.085 85.578 116.085 89.201 L 116.085 155.781 C 116.085 159.403 113.144 162.344 109.521 162.344 L 104.156 162.344 C 100.533 162.344 97.592 159.403 97.592 155.781 L 97.592 89.201 C 97.592 85.578 100.533 82.637 104.156 82.637 Z" style="stroke:none;fill:url(#_lgradient_4);stroke-miterlimit:10;"/><defs><linearGradient id="_lgradient_5" x1="0.4846614291058736" y1="0.6485179495932183" x2="0.4999999999999983" y2="0.9999999999999991"><stop offset="0%" style="stop-color:#FFFFFF"/><stop offset="97.82608695652173%" style="stop-color:#CCCCCC"/></linearGradient></defs><path d="M 58.085 156.918 L 58.085 149.989 C 58.085 146.219 61.146 143.158 64.915 143.158 L 110.095 143.158 C 113.865 143.158 116.925 146.219 116.925 149.989 L 116.925 156.918 C 116.925 160.688 113.865 163.748 110.095 163.748 L 64.915 163.748 C 61.146 163.748 58.085 160.688 58.085 156.918 Z" style="stroke:none;fill:url(#_lgradient_5);stroke-miterlimit:10;"/><defs><linearGradient id="_lgradient_6" x1="0.4846614291058736" y1="0.6485179495932183" x2="0.4999999999999983" y2="0.9999999999999991"><stop offset="0%" style="stop-color:#FFFFFF"/><stop offset="97.82608695652173%" style="stop-color:#CCCCCC"/></linearGradient></defs><path d="M 169.353 160.752 L 168.672 161.511 C 165.042 165.552 159.148 165.552 155.518 161.511 L 99.455 99.09 C 95.825 95.049 95.825 88.487 99.455 84.445 L 100.136 83.687 C 103.766 79.645 109.66 79.645 113.29 83.687 L 169.353 146.107 C 172.983 150.148 172.983 156.711 169.353 160.752 Z" style="stroke:none;fill:url(#_lgradient_6);stroke-miterlimit:10;"/><defs><linearGradient id="_lgradient_7" x1="0.4846614291058736" y1="0.6485179495932183" x2="0.4999999999999983" y2="0.9999999999999991"><stop offset="0%" style="stop-color:#FFFFFF"/><stop offset="97.82608695652173%" style="stop-color:#CCCCCC"/></linearGradient></defs><path d="M 162.486 84.959 L 164.913 84.959 C 169.346 84.959 172.946 88.558 172.946 92.992 L 172.946 158.211 C 172.946 162.645 169.346 166.244 164.913 166.244 L 162.486 166.244 C 158.052 166.244 154.453 162.645 154.453 158.211 L 154.453 92.992 C 154.453 88.558 158.052 84.959 162.486 84.959 Z" style="stroke:none;fill:url(#_lgradient_7);stroke-miterlimit:10;"/><ellipse vector-effect="non-scaling-stroke" cx="80.12903779165069" cy="92.84515118494856" rx="11.85926414069884" ry="7.886133924139003" fill="rgb(255,255,255)"/></g></g></svg>